<svg width="141" height="54" viewBox="0 0 141 54" fill="none" xmlns="http://www.w3.org/2000/svg">
<path fill-rule="evenodd" clip-rule="evenodd" d="M83 36C78.0294 36 74 40.0294 74 45C74 49.9706 78.0294 54 83 54H132C136.971 54 141 49.9706 141 45C141 40.0294 136.971 36 132 36H83ZM88.198 41.834V49.4H89.979V41.834H92.891V40.261H85.286V41.834H88.198ZM93.4473 49.101C93.9066 49.387 94.4223 49.53 94.9943 49.53C95.4449 49.53 95.8479 49.439 96.2033 49.257C96.4395 49.1302 96.6431 48.9748 96.8143 48.7906V49.4H98.5043V43.121H96.8143V43.7246C96.6431 43.5385 96.4395 43.385 96.2033 43.264C95.8479 43.082 95.4449 42.991 94.9943 42.991C94.4223 42.991 93.9066 43.134 93.4473 43.42C92.9879 43.706 92.6283 44.096 92.3683 44.59C92.1083 45.084 91.9783 45.643 91.9783 46.267C91.9783 46.8823 92.1083 47.437 92.3683 47.931C92.6283 48.425 92.9879 48.815 93.4473 49.101ZM96.4633 47.489C96.1686 47.801 95.7829 47.957 95.3063 47.957C94.9943 47.957 94.7169 47.8877 94.4743 47.749C94.2403 47.6017 94.0539 47.4023 93.9153 47.151C93.7853 46.891 93.7203 46.592 93.7203 46.254C93.7203 45.9247 93.7853 45.6343 93.9153 45.383C94.0539 45.123 94.2403 44.9237 94.4743 44.785C94.7169 44.6377 94.9943 44.564 95.3063 44.564C95.6269 44.564 95.9043 44.6377 96.1383 44.785C96.3809 44.9237 96.5673 45.123 96.6973 45.383C96.8359 45.6343 96.9053 45.9247 96.9053 46.254C96.9053 46.7567 96.7579 47.1683 96.4633 47.489ZM101.09 49.101C101.549 49.387 102.065 49.53 102.637 49.53C103.088 49.53 103.491 49.439 103.846 49.257C104.082 49.1302 104.286 48.9748 104.457 48.7906V49.4H106.147V43.121H104.457V43.7246C104.286 43.5385 104.082 43.385 103.846 43.264C103.491 43.082 103.088 42.991 102.637 42.991C102.065 42.991 101.549 43.134 101.09 43.42C100.631 43.706 100.271 44.096 100.011 44.59C99.7508 45.084 99.6208 45.643 99.6208 46.267C99.6208 46.8823 99.7508 47.437 100.011 47.931C100.271 48.425 100.631 48.815 101.09 49.101ZM104.106 47.489C103.811 47.801 103.426 47.957 102.949 47.957C102.637 47.957 102.36 47.8877 102.117 47.749C101.883 47.6017 101.697 47.4023 101.558 47.151C101.428 46.891 101.363 46.592 101.363 46.254C101.363 45.9247 101.428 45.6343 101.558 45.383C101.697 45.123 101.883 44.9237 102.117 44.785C102.36 44.6377 102.637 44.564 102.949 44.564C103.27 44.564 103.547 44.6377 103.781 44.785C104.024 44.9237 104.21 45.123 104.34 45.383C104.479 45.6343 104.548 45.9247 104.548 46.254C104.548 46.7567 104.401 47.1683 104.106 47.489ZM108.758 49.4C109.105 49.4953 109.456 49.543 109.811 49.543C110.574 49.543 111.176 49.3653 111.618 49.01C112.06 48.646 112.281 48.1563 112.281 47.541C112.281 47.1597 112.203 46.8477 112.047 46.605C111.9 46.3623 111.705 46.1673 111.462 46.02C111.228 45.8727 110.977 45.76 110.708 45.682C110.448 45.5953 110.197 45.5217 109.954 45.461C109.712 45.3917 109.512 45.3137 109.356 45.227C109.209 45.1403 109.135 45.019 109.135 44.863C109.135 44.7243 109.2 44.616 109.33 44.538C109.469 44.46 109.664 44.421 109.915 44.421C110.193 44.421 110.448 44.473 110.682 44.577C110.925 44.681 111.142 44.85 111.332 45.084L112.359 44.057C112.082 43.693 111.731 43.42 111.306 43.238C110.89 43.056 110.422 42.965 109.902 42.965C109.408 42.965 108.979 43.0473 108.615 43.212C108.251 43.3767 107.97 43.6063 107.77 43.901C107.58 44.1957 107.484 44.5423 107.484 44.941C107.484 45.3223 107.558 45.6343 107.705 45.877C107.861 46.111 108.061 46.2973 108.303 46.436C108.546 46.566 108.797 46.6743 109.057 46.761C109.326 46.839 109.582 46.9127 109.824 46.982C110.067 47.0427 110.262 47.1207 110.409 47.216C110.565 47.3113 110.643 47.4457 110.643 47.619C110.643 47.775 110.57 47.892 110.422 47.97C110.284 48.048 110.076 48.087 109.798 48.087C109.452 48.087 109.135 48.0263 108.849 47.905C108.563 47.7837 108.312 47.6017 108.095 47.359L107.081 48.386C107.289 48.6287 107.536 48.8367 107.822 49.01C108.108 49.1747 108.42 49.3047 108.758 49.4ZM115.133 46.3361L117.434 49.4H119.514L116.919 46.1065L119.384 43.121H117.421L115.133 45.9995V40.001H113.43V49.4H115.133V46.3361ZM120.298 40.001V49.4H122.001V40.001H120.298ZM126.695 49.439L125.551 52.026H123.744L125.24 48.86L122.86 43.121H124.706L126.142 47.1067L127.631 43.121H129.49L126.695 49.439Z" fill="black"/>
<path d="M48.016 30V7.312H53.744V30H48.016ZM52.56 21.52V16.688H63.792V21.52H52.56ZM52.56 12.144V7.312H64.304V12.144H52.56ZM74.1565 30.352C72.4712 30.352 70.9672 30 69.6445 29.296C68.3432 28.5707 67.3085 27.5893 66.5405 26.352C65.7725 25.0933 65.3885 23.6853 65.3885 22.128C65.3885 20.5707 65.7618 19.184 66.5085 17.968C67.2765 16.7307 68.3218 15.76 69.6445 15.056C70.9672 14.3307 72.4605 13.968 74.1245 13.968C75.7885 13.968 77.2712 14.3307 78.5725 15.056C79.8952 15.76 80.9405 16.7307 81.7085 17.968C82.4765 19.184 82.8605 20.5707 82.8605 22.128C82.8605 23.6853 82.4765 25.0933 81.7085 26.352C80.9618 27.5893 79.9272 28.5707 78.6045 29.296C77.3032 30 75.8205 30.352 74.1565 30.352ZM74.1245 25.392C74.7432 25.392 75.2765 25.264 75.7245 25.008C76.1938 24.7307 76.5565 24.3467 76.8125 23.856C77.0685 23.3653 77.1965 22.8 77.1965 22.16C77.1965 21.52 77.0578 20.9653 76.7805 20.496C76.5245 20.0053 76.1725 19.632 75.7245 19.376C75.2765 19.0987 74.7432 18.96 74.1245 18.96C73.5272 18.96 72.9938 19.0987 72.5245 19.376C72.0552 19.6533 71.6925 20.0373 71.4365 20.528C71.1805 20.9973 71.0525 21.552 71.0525 22.192C71.0525 22.8107 71.1805 23.3653 71.4365 23.856C71.6925 24.3467 72.0552 24.7307 72.5245 25.008C72.9938 25.264 73.5272 25.392 74.1245 25.392ZM85.0695 30V14.352H90.6375V30H85.0695ZM90.6375 21.488L88.1415 19.376C88.7602 17.6053 89.5815 16.272 90.6055 15.376C91.6295 14.48 92.9628 14.032 94.6055 14.032C95.3522 14.032 95.9922 14.128 96.5255 14.32C97.0802 14.512 97.5495 14.8107 97.9335 15.216L94.7015 19.536C94.5308 19.344 94.2855 19.1947 93.9655 19.088C93.6668 18.96 93.3255 18.896 92.9415 18.896C92.2162 18.896 91.6508 19.12 91.2455 19.568C90.8402 19.9947 90.6375 20.6347 90.6375 21.488ZM98.8508 30V14.352H104.419V30H98.8508ZM108.675 30V20.944C108.675 20.2827 108.472 19.7707 108.067 19.408C107.661 19.024 107.16 18.832 106.563 18.832C106.136 18.832 105.763 18.9173 105.443 19.088C105.123 19.2587 104.867 19.504 104.675 19.824C104.504 20.1227 104.419 20.496 104.419 20.944L102.243 20.08C102.243 18.8213 102.52 17.744 103.075 16.848C103.629 15.952 104.376 15.2587 105.315 14.768C106.253 14.2773 107.32 14.032 108.515 14.032C109.581 14.032 110.541 14.288 111.395 14.8C112.269 15.2907 112.963 15.984 113.475 16.88C113.987 17.776 114.243 18.832 114.243 20.048V30H108.675ZM118.499 30V20.944C118.499 20.2827 118.296 19.7707 117.891 19.408C117.485 19.024 116.984 18.832 116.387 18.832C115.981 18.832 115.608 18.9173 115.267 19.088C114.947 19.2587 114.691 19.504 114.499 19.824C114.328 20.1227 114.243 20.496 114.243 20.944L110.979 20.784C111.021 19.376 111.331 18.1707 111.907 17.168C112.483 16.1653 113.272 15.3973 114.275 14.864C115.299 14.3093 116.451 14.032 117.731 14.032C118.947 14.032 120.035 14.288 120.995 14.8C121.955 15.312 122.701 16.0587 123.235 17.04C123.789 18 124.067 19.152 124.067 20.496V30H118.499ZM132.928 30.448C131.968 30.448 131.018 30.32 130.08 30.064C129.162 29.808 128.298 29.4667 127.488 29.04C126.698 28.592 126.026 28.08 125.472 27.504L128.512 24.4C129.024 24.9333 129.632 25.3493 130.336 25.648C131.061 25.9467 131.829 26.096 132.64 26.096C133.109 26.096 133.461 26.032 133.696 25.904C133.952 25.776 134.08 25.5947 134.08 25.36C134.08 25.0187 133.898 24.7627 133.536 24.592C133.194 24.4 132.736 24.24 132.16 24.112C131.605 23.9627 131.018 23.792 130.4 23.6C129.781 23.3867 129.184 23.1093 128.608 22.768C128.032 22.4267 127.562 21.9467 127.2 21.328C126.858 20.7093 126.688 19.92 126.688 18.96C126.688 17.9573 126.954 17.0827 127.488 16.336C128.042 15.568 128.81 14.9707 129.792 14.544C130.773 14.096 131.925 13.872 133.248 13.872C134.592 13.872 135.872 14.1067 137.088 14.576C138.304 15.024 139.285 15.7067 140.032 16.624L136.96 19.728C136.448 19.152 135.882 18.7573 135.264 18.544C134.645 18.3093 134.08 18.192 133.568 18.192C133.077 18.192 132.725 18.2667 132.512 18.416C132.298 18.544 132.192 18.7253 132.192 18.96C132.192 19.2373 132.362 19.4613 132.704 19.632C133.066 19.8027 133.525 19.9627 134.08 20.112C134.656 20.24 135.242 20.4107 135.84 20.624C136.458 20.8373 137.045 21.136 137.6 21.52C138.176 21.8827 138.634 22.3733 138.976 22.992C139.338 23.6107 139.52 24.4107 139.52 25.392C139.52 26.9493 138.922 28.1867 137.728 29.104C136.533 30 134.933 30.448 132.928 30.448Z" fill="black"/>
<path fill-rule="evenodd" clip-rule="evenodd" d="M36 18C36 8.05888 27.9411 0 18 0C8.05888 0 0 8.05888 0 18C0 27.9411 8.05888 36 18 36C27.9411 36 36 27.9411 36 18ZM16.2941 24.1176H9.70588C9.32 24.1176 9 24.4376 9 24.8235C9 25.2094 9.32 25.5294 9.70588 25.5294H16.2941C16.68 25.5294 17 25.2094 17 24.8235C17 24.4376 16.68 24.1176 16.2941 24.1176ZM9.70588 19.4118L16.2941 19.4118C16.68 19.4118 17 19.7318 17 20.1176C17 20.5035 16.68 20.8235 16.2941 20.8235H9.70588C9.32 20.8235 9 20.5035 9 20.1176C9 19.7318 9.32 19.4118 9.70588 19.4118ZM26.6471 14.7059L9.70588 14.7059C9.32 14.7059 9 15.0259 9 15.4118C9 15.7976 9.32 16.1176 9.70588 16.1176H26.6471C27.0329 16.1176 27.3529 15.7976 27.3529 15.4118C27.3529 15.0259 27.0329 14.7059 26.6471 14.7059ZM9.70588 10L26.6471 10C27.0329 10 27.3529 10.32 27.3529 10.7059C27.3529 11.0918 27.0329 11.4118 26.6471 11.4118L9.70588 11.4118C9.32 11.4118 9 11.0918 9 10.7059C9 10.32 9.32 10 9.70588 10ZM24.6894 18.9412H22.0165C20.5576 18.9412 19.8235 19.6753 19.8141 21.1247V23.8071C19.8141 25.2659 20.5576 26 22.0071 26H24.6894C26.1482 26 26.8824 25.2565 26.8824 23.8071V21.1341C26.8824 19.6753 26.1388 18.9412 24.6894 18.9412ZM25.4706 23.8071C25.4706 24.4753 25.3576 24.5882 24.6894 24.5882H22.0071C21.3388 24.5882 21.2259 24.4753 21.2259 23.8071V21.1247C21.2259 20.4565 21.3388 20.3435 22.0071 20.3435H24.6894C25.3576 20.3435 25.4706 20.4565 25.4706 21.1247V23.8071Z" fill="black"/>
</svg>
