<svg width="141" height="36" viewBox="0 0 141 36" fill="none" xmlns="http://www.w3.org/2000/svg">
<path d="M48.016 30V7.312H53.744V30H48.016ZM52.56 21.52V16.688H63.792V21.52H52.56ZM52.56 12.144V7.312H64.304V12.144H52.56ZM74.1565 30.352C72.4712 30.352 70.9672 30 69.6445 29.296C68.3432 28.5707 67.3085 27.5893 66.5405 26.352C65.7725 25.0933 65.3885 23.6853 65.3885 22.128C65.3885 20.5707 65.7618 19.184 66.5085 17.968C67.2765 16.7307 68.3218 15.76 69.6445 15.056C70.9672 14.3307 72.4605 13.968 74.1245 13.968C75.7885 13.968 77.2712 14.3307 78.5725 15.056C79.8952 15.76 80.9405 16.7307 81.7085 17.968C82.4765 19.184 82.8605 20.5707 82.8605 22.128C82.8605 23.6853 82.4765 25.0933 81.7085 26.352C80.9618 27.5893 79.9272 28.5707 78.6045 29.296C77.3032 30 75.8205 30.352 74.1565 30.352ZM74.1245 25.392C74.7432 25.392 75.2765 25.264 75.7245 25.008C76.1938 24.7307 76.5565 24.3467 76.8125 23.856C77.0685 23.3653 77.1965 22.8 77.1965 22.16C77.1965 21.52 77.0578 20.9653 76.7805 20.496C76.5245 20.0053 76.1725 19.632 75.7245 19.376C75.2765 19.0987 74.7432 18.96 74.1245 18.96C73.5272 18.96 72.9938 19.0987 72.5245 19.376C72.0552 19.6533 71.6925 20.0373 71.4365 20.528C71.1805 20.9973 71.0525 21.552 71.0525 22.192C71.0525 22.8107 71.1805 23.3653 71.4365 23.856C71.6925 24.3467 72.0552 24.7307 72.5245 25.008C72.9938 25.264 73.5272 25.392 74.1245 25.392ZM85.0695 30V14.352H90.6375V30H85.0695ZM90.6375 21.488L88.1415 19.376C88.7602 17.6053 89.5815 16.272 90.6055 15.376C91.6295 14.48 92.9628 14.032 94.6055 14.032C95.3522 14.032 95.9922 14.128 96.5255 14.32C97.0802 14.512 97.5495 14.8107 97.9335 15.216L94.7015 19.536C94.5308 19.344 94.2855 19.1947 93.9655 19.088C93.6668 18.96 93.3255 18.896 92.9415 18.896C92.2162 18.896 91.6508 19.12 91.2455 19.568C90.8402 19.9947 90.6375 20.6347 90.6375 21.488ZM98.8508 30V14.352H104.419V30H98.8508ZM108.675 30V20.944C108.675 20.2827 108.472 19.7707 108.067 19.408C107.661 19.024 107.16 18.832 106.563 18.832C106.136 18.832 105.763 18.9173 105.443 19.088C105.123 19.2587 104.867 19.504 104.675 19.824C104.504 20.1227 104.419 20.496 104.419 20.944L102.243 20.08C102.243 18.8213 102.52 17.744 103.075 16.848C103.629 15.952 104.376 15.2587 105.315 14.768C106.253 14.2773 107.32 14.032 108.515 14.032C109.581 14.032 110.541 14.288 111.395 14.8C112.269 15.2907 112.963 15.984 113.475 16.88C113.987 17.776 114.243 18.832 114.243 20.048V30H108.675ZM118.499 30V20.944C118.499 20.2827 118.296 19.7707 117.891 19.408C117.485 19.024 116.984 18.832 116.387 18.832C115.981 18.832 115.608 18.9173 115.267 19.088C114.947 19.2587 114.691 19.504 114.499 19.824C114.328 20.1227 114.243 20.496 114.243 20.944L110.979 20.784C111.021 19.376 111.331 18.1707 111.907 17.168C112.483 16.1653 113.272 15.3973 114.275 14.864C115.299 14.3093 116.451 14.032 117.731 14.032C118.947 14.032 120.035 14.288 120.995 14.8C121.955 15.312 122.701 16.0587 123.235 17.04C123.789 18 124.067 19.152 124.067 20.496V30H118.499ZM132.928 30.448C131.968 30.448 131.018 30.32 130.08 30.064C129.162 29.808 128.298 29.4667 127.488 29.04C126.698 28.592 126.026 28.08 125.472 27.504L128.512 24.4C129.024 24.9333 129.632 25.3493 130.336 25.648C131.061 25.9467 131.829 26.096 132.64 26.096C133.109 26.096 133.461 26.032 133.696 25.904C133.952 25.776 134.08 25.5947 134.08 25.36C134.08 25.0187 133.898 24.7627 133.536 24.592C133.194 24.4 132.736 24.24 132.16 24.112C131.605 23.9627 131.018 23.792 130.4 23.6C129.781 23.3867 129.184 23.1093 128.608 22.768C128.032 22.4267 127.562 21.9467 127.2 21.328C126.858 20.7093 126.688 19.92 126.688 18.96C126.688 17.9573 126.954 17.0827 127.488 16.336C128.042 15.568 128.81 14.9707 129.792 14.544C130.773 14.096 131.925 13.872 133.248 13.872C134.592 13.872 135.872 14.1067 137.088 14.576C138.304 15.024 139.285 15.7067 140.032 16.624L136.96 19.728C136.448 19.152 135.882 18.7573 135.264 18.544C134.645 18.3093 134.08 18.192 133.568 18.192C133.077 18.192 132.725 18.2667 132.512 18.416C132.298 18.544 132.192 18.7253 132.192 18.96C132.192 19.2373 132.362 19.4613 132.704 19.632C133.066 19.8027 133.525 19.9627 134.08 20.112C134.656 20.24 135.242 20.4107 135.84 20.624C136.458 20.8373 137.045 21.136 137.6 21.52C138.176 21.8827 138.634 22.3733 138.976 22.992C139.338 23.6107 139.52 24.4107 139.52 25.392C139.52 26.9493 138.922 28.1867 137.728 29.104C136.533 30 134.933 30.448 132.928 30.448Z" fill="black"/>
<path fill-rule="evenodd" clip-rule="evenodd" d="M36 18C36 8.05888 27.9411 0 18 0C8.05888 0 0 8.05888 0 18C0 27.9411 8.05888 36 18 36C27.9411 36 36 27.9411 36 18ZM16.2941 24.1176H9.70588C9.32 24.1176 9 24.4376 9 24.8235C9 25.2094 9.32 25.5294 9.70588 25.5294H16.2941C16.68 25.5294 17 25.2094 17 24.8235C17 24.4376 16.68 24.1176 16.2941 24.1176ZM9.70588 19.4118L16.2941 19.4118C16.68 19.4118 17 19.7318 17 20.1176C17 20.5035 16.68 20.8235 16.2941 20.8235H9.70588C9.32 20.8235 9 20.5035 9 20.1176C9 19.7318 9.32 19.4118 9.70588 19.4118ZM26.6471 14.7059L9.70588 14.7059C9.32 14.7059 9 15.0259 9 15.4118C9 15.7976 9.32 16.1176 9.70588 16.1176H26.6471C27.0329 16.1176 27.3529 15.7976 27.3529 15.4118C27.3529 15.0259 27.0329 14.7059 26.6471 14.7059ZM9.70588 10L26.6471 10C27.0329 10 27.3529 10.32 27.3529 10.7059C27.3529 11.0918 27.0329 11.4118 26.6471 11.4118L9.70588 11.4118C9.32 11.4118 9 11.0918 9 10.7059C9 10.32 9.32 10 9.70588 10ZM24.6894 18.9412H22.0165C20.5576 18.9412 19.8235 19.6753 19.8141 21.1247V23.8071C19.8141 25.2659 20.5576 26 22.0071 26H24.6894C26.1482 26 26.8824 25.2565 26.8824 23.8071V21.1341C26.8824 19.6753 26.1388 18.9412 24.6894 18.9412ZM25.4706 23.8071C25.4706 24.4753 25.3576 24.5882 24.6894 24.5882H22.0071C21.3388 24.5882 21.2259 24.4753 21.2259 23.8071V21.1247C21.2259 20.4565 21.3388 20.3435 22.0071 20.3435H24.6894C25.3576 20.3435 25.4706 20.4565 25.4706 21.1247V23.8071Z" fill="black"/>
</svg>
